<svg width="677" height="241" xmlns="http://www.w3.org/2000/svg" xmlns:xlink="http://www.w3.org/1999/xlink" xml:space="preserve" overflow="hidden"><g transform="translate(-108 -177)"><g><g><g><g><path d="M45.3439 91.7783 45.3439 87.8932C45.3439 76.494 43.4466 60.5212 22.3705 60.5212 3.90999 60.5212 0 72.0585 0 87.2654L0 137.523C0 152.902 6.97671 163.103 22.6333 163.103 41.3274 163.103 44.8968 150.714 44.8968 136.902L44.8968 132.438 29.489 132.438 29.489 138.705C29.489 145.329 27.9369 149.099 22.5974 149.099 17.3467 149.099 15.6524 145.472 15.6524 138.652L15.6524 85.9518C15.6524 79.4486 16.9469 74.3952 22.7823 74.3952 28.3311 74.3952 29.8053 78.7865 29.8053 86.203L29.8053 91.7783 45.3439 91.7783" fill="#1A427D" fill-rule="nonzero" fill-opacity="1" transform="matrix(1 0 0 -1.00148 132.834 401.064)"/><path d="M67.567 61.9782 50.1279 161.647 66.7351 161.647 72.0341 121.096C73.7648 107.674 75.9181 93.5739 76.8138 82.1088L77.0943 82.1088C77.9718 92.917 80.2748 107.149 81.874 120.78L86.85 161.647 103.308 161.647 86.323 61.9782 67.567 61.9782" fill="#1A427D" fill-rule="nonzero" fill-opacity="1" transform="matrix(1 0 0 -1.00148 132.834 401.064)"/><path d="M125.662 115.513 129.875 115.513C139.459 115.513 141.099 121.11 141.099 130.838L141.099 135.738C141.099 142.983 139.78 148.956 131.242 148.956L125.662 148.956ZM110.291 161.647 132.459 161.647C148.288 161.647 156.358 153.828 156.358 136.203L156.358 130.33C156.358 113.881 150.484 102.954 131.6 102.954L125.662 102.954 125.662 61.9782 110.291 61.9782 110.291 161.647" fill="#1A427D" fill-rule="nonzero" fill-opacity="1" transform="matrix(1 0 0 -1.00148 132.834 401.064)"/><path d="M180.715 119.239 184.24 119.239C192.374 119.239 195.365 122.304 195.365 133.143L195.365 136.561C195.365 144.265 193.772 148.956 185.059 148.956L180.715 148.956ZM180.715 106.547 180.715 61.9782 165.344 61.9782 165.344 161.647 186.635 161.647C201.8 161.647 210.754 155.571 210.754 137.631L210.754 133.834C210.754 118.519 204.468 114.624 200.607 113.042 206.42 110.315 209.745 106.125 209.745 92.6008 209.745 84.2101 209.596 68.0187 210.658 61.9782L195.811 61.9782C194.487 68.0001 194.768 84.37 194.768 91.6106 194.768 103.761 193.203 106.547 184.282 106.547L180.715 106.547" fill="#1A427D" fill-rule="nonzero" fill-opacity="1" transform="matrix(1 0 0 -1.00148 132.834 401.064)"/><path d="M592.822 105.852C591.697 105.885 591.134 105.127 591.086 103.481L590.773 92.7389C590.728 91.1593 591.176 90.2891 592.372 90.2538 593.561 90.2195 594.03 91.0949 594.079 92.7374L594.39 103.467C594.433 104.93 593.998 105.818 592.822 105.852" fill="#1A427D" fill-rule="nonzero" fill-opacity="1" transform="matrix(1 0 0 -1.00148 132.834 401.064)"/><path d="M444.982 116.806C453.648 123.898 455.814 136.7 445.179 120.942 444.982 120.549 442.027 116.019 442.224 115.821 443.012 115.23 444.194 116.215 444.982 116.806" fill="#1A427D" fill-rule="nonzero" fill-opacity="1" transform="matrix(1 0 0 -1.00148 132.834 401.064)"/><path d="M302.764 88.6393C309.066 88.4421 313.991 91.7907 313.006 97.3058 309.461 94.5486 305.521 92.5784 302.764 88.6393" fill="#1A427D" fill-rule="nonzero" fill-opacity="1" transform="matrix(1 0 0 -1.00148 132.834 401.064)"/><path d="M226.106 59.111C229.869 47.2989 235.598 35.6147 243.972 25.7779 239.763 61.5384 294.047 170.601 295.08 188.504 266.905 155.079 248.057 104.399 226.106 59.111" fill="#1A427D" fill-rule="nonzero" fill-opacity="1" transform="matrix(1 0 0 -1.00148 132.834 401.064)"/><path d="M620.51 92.8941C620.401 89.1369 619.191 86.4356 615.143 86.5535 611.448 86.6605 610.247 89.0367 610.333 91.9963L610.347 92.4828 613.676 92.3858 613.653 91.6266C613.623 90.5362 613.914 89.3347 615.223 89.2973 616.625 89.2562 616.959 90.2491 617.026 92.58L617.099 95.0626C617.157 97.0965 616.85 98.0156 615.509 98.055 614.35 98.0878 613.95 97.421 613.684 96.1005L610.721 96.4921C611.108 99.4907 611.691 105.135 611.957 108.076L620.448 107.83 620.026 104.895 614.783 105.047C614.63 103.282 614.398 101.128 614.247 99.9404 614.714 100.512 615.675 100.857 616.812 100.824 619.639 100.741 620.676 98.6474 620.573 95.0875ZM608.526 87.0058 599.093 87.28 599.105 87.6798C599.25 91.6895 600.904 94.2395 603.144 97.2238 604.965 99.6289 605.6 100.386 605.668 102.732 605.731 104.863 605.517 105.724 604.296 105.76 603.218 105.791 602.774 104.999 602.724 103.325L602.693 102.22 599.602 102.31 599.636 103.508C599.708 105.946 600.576 108.667 604.528 108.552 608.155 108.447 609.131 106.165 609.034 102.839 608.935 99.4705 607.807 98.0769 605.971 95.7491 604.417 93.7769 603.129 91.744 602.918 90.0538L609.064 89.8752ZM597.416 92.9726C597.324 89.7683 596.283 87.1013 592.162 87.2208 588.353 87.3309 587.392 90.0201 587.486 93.2245L587.773 103.176C587.881 106.846 589.524 108.988 592.976 108.888 596.36 108.789 597.813 106.614 597.711 103.121ZM585.422 87.6767 575.988 87.9509 576 88.3507C576.145 92.3599 577.799 94.9109 580.039 97.8941 581.859 100.299 582.495 101.057 582.564 103.403 582.625 105.534 582.411 106.395 581.192 106.431 580.114 106.462 579.668 105.669 579.619 103.995L579.587 102.891 576.497 102.981 576.53 104.179C576.602 106.616 577.471 109.337 581.422 109.223 585.051 109.118 586.026 106.836 585.929 103.51 585.831 100.141 584.701 98.7471 582.867 96.4194 581.311 94.4473 580.025 92.4144 579.813 90.7242L585.96 90.5455ZM567.983 85.1152 565.511 85.1864C566.746 88.0474 567.327 91.1355 567.392 93.0245L570.451 92.9363C570.301 90.0419 569.178 86.863 567.983 85.1152ZM565.348 94.4961C565.239 90.7387 564.029 88.037 559.982 88.1549 556.285 88.2623 555.086 90.6381 555.171 93.5977L555.185 94.0837 558.514 93.9872 558.491 93.2281C558.461 92.1376 558.752 90.9366 560.061 90.8982 561.462 90.8582 561.796 91.8505 561.864 94.1814L561.937 96.664C561.995 98.6973 561.688 99.6169 560.347 99.6558 559.188 99.6896 558.788 99.023 558.522 97.7019L555.559 98.0939C555.946 101.092 556.531 106.737 556.794 109.678L565.287 109.431 564.864 106.497 559.621 106.649C559.467 104.884 559.236 102.729 559.086 101.542 559.552 102.114 560.513 102.458 561.651 102.425 564.477 102.343 565.514 100.249 565.412 96.6894ZM552.757 88.6254 549.403 88.7224 549.906 106.025C549.318 105.959 548.245 105.969 547.767 105.995L547.84 108.53C549.206 108.619 550.3 109.249 550.924 109.953L553.374 109.882ZM547.001 95.8882 541.126 96.059 541.213 99.1205 547.089 98.9502ZM538.565 89.0367 535.212 89.1342 535.714 106.436C535.127 106.371 534.055 106.381 533.577 106.408L533.651 108.942C535.016 109.032 536.109 109.661 536.734 110.365L539.184 110.294ZM531.244 89.2495 527.891 89.3472 528.394 106.649C527.805 106.583 526.733 106.594 526.253 106.62L526.328 109.155C527.693 109.244 528.787 109.874 529.411 110.578L531.862 110.507ZM520.728 102.579 520.639 99.4959 515.861 99.6346 515.662 92.7877 521.169 92.6277 520.655 89.5575 512.22 89.8021 512.85 111.54 521.246 111.296 521.156 108.184 516.114 108.33 515.95 102.718ZM509.317 89.8861 505.582 89.9947C504.97 92.6116 502.425 104.618 502.233 105.537L502.2 105.538C502.285 102.901 502.187 99.9555 502.072 96.0455L501.9 90.1012 498.774 90.1919 499.406 111.929 503.289 111.817C504.068 108.725 506.35 97.9195 506.547 96.7605L506.583 96.76C506.506 99.4384 506.585 102.497 506.689 106.069L506.852 111.713 509.948 111.624ZM496.103 95.5429C496.001 92.1126 494.39 90.0015 490.764 90.1063 487.308 90.207 485.709 92.1251 485.816 95.83L486.295 112.311 489.647 112.213 489.169 95.6785C489.122 94.091 489.616 93.1725 490.913 93.1346 492.242 93.0962 492.702 94.0994 492.745 95.5709L493.223 112.109 496.58 112.012ZM483.174 95.6067C483.089 92.7051 482.639 90.4002 478.767 90.5128 478.287 90.5264 477.596 90.6073 477.063 90.7133L477.147 93.5666C477.423 93.5261 477.701 93.4855 478.157 93.4726 479.327 93.4389 479.764 93.738 479.809 95.2999L480.308 112.484 483.66 112.386ZM433.951 84.3062C433.753 84.3062 433.753 84.3062 433.753 84.5024 431.451 86.9336 430.733 90.3622 430.832 93.9238 427.563 87.0888 422.476 77.1384 417.601 70.1243 416.617 68.941 414.253 67.1693 412.874 68.941 410.48 72.4132 410.933 79.9169 412.915 89.1192 409.811 82.926 405.859 75.6222 402.039 70.1243 401.054 68.941 398.689 67.1693 397.311 68.941 389.431 80.3666 412.281 135.322 419.569 151.473 420.357 153.64 421.538 155.61 422.72 157.58 423.509 159.155 426.659 160.535 426.857 158.368 428.037 151.868 419.372 132.957 417.6 131.382 415.038 129.019 414.448 125.67 413.265 122.912 406.373 105.579 400.266 75.0479 400.659 74.6548 402.693 76.9774 411.143 93.9519 415.763 100.196 421.424 119.626 430.899 142.092 435.132 151.473 435.92 153.64 437.102 155.61 438.284 157.58 439.072 159.155 442.222 160.535 442.42 158.368 443.601 151.868 434.935 132.957 433.163 131.382 430.602 129.019 430.011 125.67 428.828 122.912 421.936 105.579 415.829 75.0479 416.223 74.6548 418.339 77.0725 427.41 95.3694 431.874 100.907 433.816 108.701 442.333 134.512 453.648 130.988 456.405 130.003 457.784 127.443 456.011 124.291 452.269 117.595 445.179 110.7 442.815 113.654 442.42 114.049 442.224 114.443 441.632 114.837 437.89 106.367 432.768 94.3512 436.315 86.4726 438.875 80.7597 455.421 104.595 457.784 107.352 458.966 99.0785 442.027 76.0334 433.951 84.3062ZM390.417 90.4121C387.857 87.8517 383.327 91.1998 385.099 100.26 387.069 111.291 395.932 131.973 396.13 132.17 397.509 135.322 402.433 134.14 401.054 130.201 394.159 110.897 390.614 104.988 390.024 95.3367 389.826 92.7753 391.992 91.7907 390.417 90.4121ZM377.612 102.624C377.219 99.8661 374.657 91.9881 372.688 89.6245 370.324 86.8662 365.991 87.0635 364.218 92.7753 362.857 97.0846 362.198 101.511 362.097 106.074 359.068 98.2892 353.188 88.5371 349.249 92.1848 340.385 100.852 353.384 127.837 353.582 134.14 346.097 126.852 335.067 95.3367 332.308 87.6543 330.338 86.4726 328.37 87.0635 328.172 89.4276 327.877 92.5645 329.396 100.115 331.665 109.147 328.759 107.054 324.23 104.198 317.535 99.8661 318.521 92.3822 319.308 91.0031 314.976 87.8517 309.854 84.1088 305.324 84.5024 300.99 86.079 299.415 86.6699 298.824 88.0479 298.233 89.8207 298.435 90.2273 298.688 90.5959 298.927 90.9745 293.534 87.0245 289.194 93.8039 289.37 98.8817L284.445 92.5784C282.476 90.6089 279.916 90.6089 278.536 92.3822 272.036 100.654 284.248 124.685 292.521 126.655 296.067 127.443 299.022 127.049 300.794 124.488 301.582 123.504 301.385 123.11 300.005 121.73 299.218 122.518 298.43 122.912 297.84 123.7 294.491 129.019 278.536 108.14 280.899 94.7453 283.066 97.3058 285.628 99.4727 292.718 113.26 293.112 114.049 293.506 115.033 294.688 115.033 295.87 115.23 297.248 115.427 298.037 114.443 298.233 114.049 298.233 113.458 298.037 113.064 294.885 107.943 291.93 98.0939 294.688 92.5784 298.627 93.957 303.158 105.579 305.521 110.504 306.759 107.852 306.082 100.603 302.373 94.8725 305.151 97.2315 308.728 99.2124 312.611 101.639 311.233 107.745 306.112 118.579 317.535 126.064 326.006 131.776 332.703 128.427 326.596 118.973 324.626 116.215 322.461 116.806 320.096 118.185 321.673 120.549 323.248 122.715 324.233 125.276 318.521 122.518 315.173 118.185 314.581 113.26 314.188 110.306 315.369 107.745 316.156 105.185 316.354 104.397 317.143 104.397 318.521 105.185 325.876 109.598 330.348 112.593 332.937 114.077 338.318 134.427 346.294 159.225 346.294 159.352 349.444 159.746 350.431 158.761 349.642 156.2 346.885 146.154 335.855 109.321 335.46 106.958 338.415 112.867 345.112 138.474 355.354 137.489 357.128 137.291 358.308 135.912 358.113 133.745 357.915 126.852 348.461 104.397 351.416 95.3367 355.604 100.574 359.021 105.813 362.211 111.187 362.576 116.96 363.717 122.953 365.398 129.216 365.991 131.579 366.582 132.17 368.748 132.367 370.522 132.367 372.095 130.989 371.505 129.216 369.537 120.549 366.385 114.837 368.945 94.9426L369.537 94.9426C369.733 95.1394 370.915 99.0785 371.112 99.4727 371.703 100.852 372.095 102.427 372.688 104.003 373.869 107.155 374.855 110.306 376.234 113.458 378.794 119.761 382.339 126.064 387.066 131.776 396.128 142.807 391.399 132.564 390.021 130.397 383.521 119.958 378.005 104.988 377.612 102.624ZM400.463 143.989C400.659 145.762 401.054 147.337 401.448 149.111 401.448 149.701 401.644 150.291 401.841 150.883 402.039 151.473 402.433 152.261 403.418 152.655 404.993 153.443 405.584 152.458 406.765 151.868 408.145 150.685 407.553 149.306 406.569 147.731 405.584 146.154 404.796 144.776 403.811 143.397 402.433 140.837 399.872 141.625 400.463 143.989ZM628.422 114.184 620.3 114.426 620.207 117.66C622.502 118.465 624.117 120.683 624.044 123.245 623.951 126.416 621.306 128.912 618.135 128.82 614.964 128.728 612.467 126.083 612.559 122.912 612.627 120.57 614.089 118.6 616.126 117.765L616.219 114.548 603.477 114.927 603.379 118.329C605.675 119.135 607.291 121.352 607.217 123.914 607.125 127.086 604.48 129.582 601.308 129.49 598.136 129.398 595.64 126.753 595.732 123.582 595.801 121.24 597.262 119.27 599.298 118.435L599.396 115.049 587.923 115.39 587.817 119.091C590.113 119.896 591.728 122.114 591.655 124.676 591.562 127.847 588.916 130.343 585.746 130.251 582.574 130.16 580.078 127.514 580.17 124.343 580.237 122.002 581.7 120.032 583.736 119.196L583.842 115.512 537.471 116.894 537.45 116.894 484.637 118.467 476.886 118.698C476.886 118.698 472.118 170.375 431.805 177.799 399.103 183.821 384.322 159.385 372.328 159.038 360.334 158.69 356.213 207.36 298.566 205.689 240.917 204.02 220.451 135.274 219.878 101.57 219.763 94.7074 220.241 86.7061 221.588 78.2615 223.952 85.1521 226.705 93.2577 229.884 102.821 239.929 133.943 243.868 141.231 245.641 150.489 246.231 154.231 252.338 154.231 251.55 150.685 249.787 142.46 232.367 92.8475 223.618 68.0546 223.89 66.9163 224.178 65.776 224.484 64.6342 225.476 66.7278 226.667 69.2483 228.111 72.2906L228.504 73.0789C228.504 73.0789 268.49 162.11 281.884 177.671 282.671 178.656 283.065 179.837 283.853 180.822 291.929 192.049 295.475 196.973 301.187 196.186 312.72 194.623 232.899 39.6301 250.941 18.606 251.293 18.2897 251.654 17.9771 252.014 17.666 257.82 14.7791 276.13 33.4301 279.914 36.8359 278.141 32.5028 274.989 30.139 275.187 28.9562 275.187 28.6343 264.521 16.7303 255.463 14.8745 265.438 7.30176 277.983 1.97005 293.675 0.318823 321.63-2.62276 345.127 15.3637 352.518 27.5812 359.907 39.7987 366.512 52.382 378.697 46.1529 390.882 39.9229 420.549 18.3246 450.049 29.246 450.049 29.246 434.26 39.6316 436.485 56.3459 438.712 73.0612 440.046 80.4575 478.372 80.7935L565.492 80.995C571.693 80.7877 587.612 79.3125 590.825 61.9809L629.878 63.887 628.422 114.184" fill="#1A427D" fill-rule="nonzero" fill-opacity="1" transform="matrix(1 0 0 -1.00148 132.834 401.064)"/></g></g></g></g></g></svg>